<svg xmlns="http://www.w3.org/2000/svg" width="30" height="31" viewBox="0 0 30 31" fill="none">
  <path d="M24.375 5.1875H5.625C4.0717 5.1875 2.8125 6.4467 2.8125 8V24.875C2.8125 26.4283 4.0717 27.6875 5.625 27.6875H24.375C25.9283 27.6875 27.1875 26.4283 27.1875 24.875V8C27.1875 6.4467 25.9283 5.1875 24.375 5.1875Z" stroke="#B0008E" stroke-linejoin="round"/>
  <path d="M17.3438 15.5C18.1204 15.5 18.75 14.8704 18.75 14.0938C18.75 13.3171 18.1204 12.6875 17.3438 12.6875C16.5671 12.6875 15.9375 13.3171 15.9375 14.0938C15.9375 14.8704 16.5671 15.5 17.3438 15.5Z" fill="#B0008E"/>
  <path d="M22.0312 15.5C22.8079 15.5 23.4375 14.8704 23.4375 14.0938C23.4375 13.3171 22.8079 12.6875 22.0312 12.6875C21.2546 12.6875 20.625 13.3171 20.625 14.0938C20.625 14.8704 21.2546 15.5 22.0312 15.5Z" fill="#B0008E"/>
  <path d="M17.3438 20.1875C18.1204 20.1875 18.75 19.5579 18.75 18.7812C18.75 18.0046 18.1204 17.375 17.3438 17.375C16.5671 17.375 15.9375 18.0046 15.9375 18.7812C15.9375 19.5579 16.5671 20.1875 17.3438 20.1875Z" fill="#B0008E"/>
  <path d="M22.0312 20.1875C22.8079 20.1875 23.4375 19.5579 23.4375 18.7812C23.4375 18.0046 22.8079 17.375 22.0312 17.375C21.2546 17.375 20.625 18.0046 20.625 18.7812C20.625 19.5579 21.2546 20.1875 22.0312 20.1875Z" fill="#B0008E"/>
  <path d="M7.96875 20.1875C8.7454 20.1875 9.375 19.5579 9.375 18.7812C9.375 18.0046 8.7454 17.375 7.96875 17.375C7.1921 17.375 6.5625 18.0046 6.5625 18.7812C6.5625 19.5579 7.1921 20.1875 7.96875 20.1875Z" fill="#B0008E"/>
  <path d="M12.6562 20.1875C13.4329 20.1875 14.0625 19.5579 14.0625 18.7812C14.0625 18.0046 13.4329 17.375 12.6562 17.375C11.8796 17.375 11.25 18.0046 11.25 18.7812C11.25 19.5579 11.8796 20.1875 12.6562 20.1875Z" fill="#B0008E"/>
  <path d="M7.96875 24.875C8.7454 24.875 9.375 24.2454 9.375 23.4688C9.375 22.6921 8.7454 22.0625 7.96875 22.0625C7.1921 22.0625 6.5625 22.6921 6.5625 23.4688C6.5625 24.2454 7.1921 24.875 7.96875 24.875Z" fill="#B0008E"/>
  <path d="M12.6562 24.875C13.4329 24.875 14.0625 24.2454 14.0625 23.4688C14.0625 22.6921 13.4329 22.0625 12.6562 22.0625C11.8796 22.0625 11.25 22.6921 11.25 23.4688C11.25 24.2454 11.8796 24.875 12.6562 24.875Z" fill="#B0008E"/>
  <path d="M17.3438 24.875C18.1204 24.875 18.75 24.2454 18.75 23.4688C18.75 22.6921 18.1204 22.0625 17.3438 22.0625C16.5671 22.0625 15.9375 22.6921 15.9375 23.4688C15.9375 24.2454 16.5671 24.875 17.3438 24.875Z" fill="#B0008E"/>
  <path d="M7.5 3.3125V5.1875M22.5 3.3125V5.1875" stroke="#B0008E" stroke-linecap="round" stroke-linejoin="round"/>
  <path d="M27.1875 9.875H2.8125" stroke="#B0008E" stroke-linejoin="round"/>
</svg>