<svg xmlns="http://www.w3.org/2000/svg" width="40" height="40" viewBox="0 0 40 40" fill="none">
  <path d="M31.4061 13.125C31.1772 16.3023 28.8202 18.75 26.2499 18.75C23.6796 18.75 21.3186 16.3031 21.0936 13.125C20.8592 9.81953 23.1538 7.5 26.2499 7.5C29.346 7.5 31.6405 9.87969 31.4061 13.125Z" stroke="#B0008E" stroke-linecap="round" stroke-linejoin="round"/>
  <path d="M26.2502 23.75C21.1588 23.75 16.2627 26.2789 15.0361 31.2039C14.8736 31.8555 15.2822 32.5 15.9517 32.5H36.5494C37.2189 32.5 37.6252 31.8555 37.465 31.2039C36.2385 26.2 31.3424 23.75 26.2502 23.75Z" stroke="#B0008E" stroke-miterlimit="10"/>
  <path d="M15.6248 14.5266C15.442 17.0641 13.5373 19.0625 11.4841 19.0625C9.43102 19.0625 7.52321 17.0648 7.34352 14.5266C7.1568 11.8867 9.01071 10 11.4841 10C13.9576 10 15.8115 11.9352 15.6248 14.5266Z" stroke="#B0008E" stroke-linecap="round" stroke-linejoin="round"/>
  <path d="M16.0935 23.9063C14.6834 23.2602 13.1303 23.0117 11.4842 23.0117C7.42166 23.0117 3.5076 25.0313 2.52713 28.9648C2.39823 29.4852 2.72479 30 3.25916 30H12.031" stroke="#B0008E" stroke-miterlimit="10" stroke-linecap="round"/>
</svg>