<svg width="50" height="50" viewBox="0 0 50 50" fill="none" xmlns="http://www.w3.org/2000/svg">
<circle cx="25" cy="25" r="23" stroke="#C344AB" stroke-width="4"/>
<g clip-path="url(#clip0_42_2545)">
<path fill-rule="evenodd" clip-rule="evenodd" d="M29.552 35.133C28.112 35.08 24.031 34.516 19.757 30.243C15.484 25.969 14.921 21.889 14.867 20.448C14.787 18.252 16.469 16.119 18.412 15.286C18.646 15.1849 18.9022 15.1465 19.1555 15.1743C19.4089 15.2022 19.6506 15.2955 19.857 15.445C21.457 16.611 22.561 18.375 23.509 19.762C23.7176 20.0667 23.8068 20.4375 23.7596 20.8038C23.7123 21.17 23.532 21.5061 23.253 21.748L21.302 23.197C21.2077 23.265 21.1414 23.365 21.1153 23.4783C21.0892 23.5916 21.1051 23.7105 21.16 23.813C21.602 24.616 22.388 25.812 23.288 26.712C24.189 27.612 25.441 28.45 26.3 28.942C26.4077 29.0024 26.5345 29.0193 26.6543 28.9892C26.774 28.9591 26.8777 28.8842 26.944 28.78L28.214 26.847C28.4475 26.5368 28.7919 26.329 29.1752 26.2672C29.5584 26.2053 29.9508 26.2941 30.27 26.515C31.677 27.489 33.319 28.574 34.521 30.113C34.6826 30.3209 34.7854 30.5684 34.8187 30.8296C34.8519 31.0908 34.8144 31.3562 34.71 31.598C33.873 33.551 31.755 35.214 29.552 35.133Z" fill="#C344AB"/>
</g>
<defs>
<clipPath id="clip0_42_2545">
<rect width="24" height="24" fill="white" transform="translate(13 13)"/>
</clipPath>
</defs>
</svg>
