<svg xmlns="http://www.w3.org/2000/svg" width="40" height="40" viewBox="0 0 40 40" fill="none">
  <path d="M12.3703 14.2531C12.8281 14.4835 13.0142 15.0464 12.7841 15.5041L11.5686 17.9185C11.3384 18.3761 10.7751 18.5621 10.3173 18.3317C9.86038 18.1014 9.67427 17.5384 9.90442 17.0808L11.1199 14.6664C11.3501 14.2087 11.9134 14.0228 12.3703 14.2531Z" stroke="#B0008E" stroke-miterlimit="22.9256"/>
  <path d="M31.9872 24.1271C31.5294 23.8968 30.9669 24.0828 30.7368 24.5404L29.5213 26.9548C29.2911 27.4124 29.4764 27.9754 29.9342 28.2058C30.392 28.4361 30.9553 28.2502 31.1854 27.7926L32.4009 25.3781C32.6311 24.9205 32.445 24.3575 31.9872 24.1271Z" stroke="#B0008E" stroke-miterlimit="22.9256"/>
  <path d="M29.7699 19.553C29.3121 19.3226 28.7487 19.5086 28.5186 19.9663L26.5138 23.9494C26.2836 24.4071 26.4698 24.97 26.9267 25.2004C27.3845 25.4308 27.9478 25.2448 28.178 24.7871L30.1828 20.804C30.4137 20.3463 30.2276 19.7833 29.7699 19.553Z" stroke="#B0008E" stroke-miterlimit="22.9256"/>
  <path fill-rule="evenodd" clip-rule="evenodd" d="M23.1289 9.51992C26.4232 3.70405 31.6135 5.56929 28.8385 12.4624L21.7423 26.5603C21.7423 26.5603 21.5944 26.8766 21.3734 27.3442C21.5204 27.5475 21.6135 27.7931 21.6285 28.0608L21.8702 32.2751C21.9126 33.0225 21.3368 33.669 20.5891 33.7119C19.8413 33.7547 19.1949 33.1784 19.1526 32.4309L19.0736 31.0595L18.9939 31.0156L18.4006 32.1936C18.129 32.7327 17.4668 32.9517 16.9276 32.6803L14.1335 31.2739C13.5942 31.0026 13.3757 30.3397 13.6466 29.8007L14.1509 28.7989L13.1896 29.4297C12.564 29.8406 11.7157 29.6647 11.3053 29.0387V29.0386C10.894 28.4128 11.0702 27.5647 11.6958 27.1538C12.4003 26.6914 15.044 24.802 15.6439 24.6546C17.7734 20.3057 21.2504 13.2507 23.1289 9.51992Z" fill="white"/>
  <path d="M23.1289 9.51992C26.4232 3.70405 31.6135 5.56929 28.8385 12.4624L21.7423 26.5603C21.7423 26.5603 21.5944 26.8766 21.3734 27.3442C21.5204 27.5475 21.6135 27.7931 21.6285 28.0608L21.8702 32.2751C21.9126 33.0225 21.3368 33.669 20.5891 33.7119C19.8413 33.7547 19.1949 33.1784 19.1526 32.4309L19.0736 31.0595L18.9939 31.0156L18.4006 32.1936C18.129 32.7327 17.4668 32.9517 16.9276 32.6803L14.1335 31.2739C13.5942 31.0026 13.3757 30.3397 13.6466 29.8007L14.1509 28.7989L13.1896 29.4297C12.564 29.8406 11.7157 29.6647 11.3053 29.0387V29.0386C10.894 28.4128 11.0702 27.5647 11.6958 27.1538C12.4003 26.6914 15.044 24.802 15.6439 24.6546C17.7734 20.3057 21.2504 13.2507 23.1289 9.51992Z" stroke="#B0008E" stroke-miterlimit="22.9256"/>
  <path fill-rule="evenodd" clip-rule="evenodd" d="M26.4978 17.3252C26.4978 17.3252 31.3433 28.7355 31.2053 29.2822C31.0666 29.829 31.0516 30.4035 29.2296 28.7502C27.4084 27.0971 27.4151 27.0834 27.4151 27.0834L23.2866 23.5838L26.4978 17.3252Z" fill="white"/>
  <path d="M26.4978 17.3252C26.4978 17.3252 31.3433 28.7355 31.2053 29.2822C31.0666 29.829 31.0516 30.4035 29.2296 28.7502C27.4084 27.0971 27.4151 27.0834 27.4151 27.0834L23.2866 23.5838L26.4978 17.3252Z" stroke="#B0008E" stroke-miterlimit="22.9256"/>
  <path d="M17.3661 13.3094C17.823 13.5397 18.0091 14.1026 17.779 14.5604L15.7742 18.5435C15.544 19.0012 14.9807 19.1871 14.5229 18.9567C14.0651 18.7264 13.879 18.1634 14.11 17.7058L16.1148 13.7226C16.345 13.2649 16.9083 13.079 17.3661 13.3094Z" stroke="#B0008E" stroke-miterlimit="22.9256"/>
  <path fill-rule="evenodd" clip-rule="evenodd" d="M24.5514 11.8672L26.4906 12.8436L25.501 14.8108L23.561 13.8343L24.5514 11.8672Z" fill="white"/>
  <path d="M24.5514 11.8672L26.4906 12.8436L25.501 14.8108L23.561 13.8343L24.5514 11.8672Z" stroke="#B0008E" stroke-miterlimit="22.9256"/>
  <path fill-rule="evenodd" clip-rule="evenodd" d="M20.6937 14.4034C20.6937 14.4034 8.64235 17.3087 8.28592 17.7454C7.92866 18.1822 7.47668 18.5366 9.88944 19.015C12.303 19.4935 12.3097 19.4798 12.3097 19.4798L17.5797 20.7109L20.6937 14.4034Z" fill="white"/>
  <path d="M20.6937 14.4034C20.6937 14.4034 8.64235 17.3087 8.28592 17.7454C7.92866 18.1822 7.47668 18.5366 9.88944 19.015C12.303 19.4935 12.3097 19.4798 12.3097 19.4798L17.5797 20.7109L20.6937 14.4034Z" stroke="#B0008E" stroke-miterlimit="22.9256"/>
</svg>