<svg width="50" height="50" viewBox="0 0 50 50" fill="none" xmlns="http://www.w3.org/2000/svg">
<circle cx="25" cy="25" r="23" stroke="#C344AB" stroke-width="4"/>
<g clip-path="url(#clip0_42_2537)">
<path fill-rule="evenodd" clip-rule="evenodd" d="M31.7771 17.43C32.0243 17.326 32.2947 17.2901 32.5604 17.3261C32.8261 17.3621 33.0773 17.4686 33.2878 17.6347C33.4984 17.8007 33.6606 18.0201 33.7575 18.27C33.8545 18.52 33.8827 18.7914 33.8391 19.056L31.5711 32.813C31.3511 34.14 29.8951 34.901 28.6781 34.24C27.6601 33.687 26.1481 32.835 24.7881 31.946C24.1081 31.501 22.0251 30.076 22.2811 29.062C22.5011 28.195 26.0011 24.937 28.0011 23C28.7861 22.239 28.4281 21.8 27.5011 22.5C25.1981 24.238 21.5031 26.881 20.2811 27.625C19.2031 28.281 18.6411 28.393 17.9691 28.281C16.7431 28.077 15.6061 27.761 14.6781 27.376C13.4241 26.856 13.4851 25.132 14.6771 24.63L31.7771 17.43Z" fill="#C344AB"/>
</g>
<defs>
<clipPath id="clip0_42_2537">
<rect width="24" height="24" fill="white" transform="translate(12 13)"/>
</clipPath>
</defs>
</svg>
