<svg width="20" height="20" viewBox="0 0 20 20" fill="none" xmlns="http://www.w3.org/2000/svg">
<path d="M19.6489 17.875C18.2211 15.4066 16.0208 13.6366 13.4529 12.7975C14.7231 12.0414 15.7099 10.8892 16.2619 9.51792C16.8139 8.14666 16.9004 6.63211 16.5083 5.20688C16.1162 3.78166 15.2671 2.52454 14.0914 1.6286C12.9156 0.732664 11.4783 0.247437 10.0001 0.247437C8.52195 0.247437 7.08463 0.732664 5.90891 1.6286C4.73318 2.52454 3.88407 3.78166 3.49195 5.20688C3.09984 6.63211 3.18641 8.14666 3.73837 9.51792C4.29033 10.8892 5.27716 12.0414 6.54732 12.7975C3.97951 13.6356 1.77919 15.4056 0.351382 17.875C0.299021 17.9604 0.264291 18.0554 0.24924 18.1544C0.234189 18.2534 0.239122 18.3544 0.263748 18.4515C0.288374 18.5486 0.332195 18.6397 0.392624 18.7196C0.453053 18.7995 0.528867 18.8664 0.615593 18.9165C0.702318 18.9666 0.798198 18.9988 0.897577 19.0113C0.996955 19.0237 1.09782 19.0161 1.19421 18.989C1.29061 18.9618 1.38059 18.9156 1.45884 18.8531C1.53709 18.7906 1.60203 18.713 1.64982 18.625C3.41607 15.5725 6.53794 13.75 10.0001 13.75C13.4623 13.75 16.5842 15.5725 18.3504 18.625C18.3982 18.713 18.4632 18.7906 18.5414 18.8531C18.6197 18.9156 18.7097 18.9618 18.806 18.989C18.9024 19.0161 19.0033 19.0237 19.1027 19.0113C19.2021 18.9988 19.2979 18.9666 19.3847 18.9165C19.4714 18.8664 19.5472 18.7995 19.6076 18.7196C19.6681 18.6397 19.7119 18.5486 19.7365 18.4515C19.7611 18.3544 19.7661 18.2534 19.751 18.1544C19.736 18.0554 19.7012 17.9604 19.6489 17.875ZM4.75013 6.99999C4.75013 5.96164 5.05804 4.9466 5.63492 4.08324C6.21179 3.21989 7.03173 2.54698 7.99104 2.14962C8.95036 1.75226 10.006 1.64829 11.0244 1.85086C12.0428 2.05344 12.9782 2.55345 13.7124 3.28768C14.4467 4.0219 14.9467 4.95736 15.1493 5.97576C15.3518 6.99416 15.2479 8.04976 14.8505 9.00908C14.4531 9.96839 13.7802 10.7883 12.9169 11.3652C12.0535 11.9421 11.0385 12.25 10.0001 12.25C8.6082 12.2485 7.27371 11.6949 6.28947 10.7107C5.30522 9.72641 4.75162 8.39192 4.75013 6.99999Z" fill="#22262A"/>
</svg>
